<svg width="24" height="24" viewBox="0 0 24 24" fill="none" xmlns="http://www.w3.org/2000/svg">
<path d="M2.74628 1V14.5H7.67003L12 7H23V1H2.74628Z" fill="#DB4437"/>
<path d="M2.74628 1V14.5H7.67003L12 7H23V1H2.74628Z" fill="url(#paint0_linear_1:1003)"/>
<path d="M7.78874 14.4562L2.80999 5.91748L2.73749 6.04248L7.67999 14.5175L7.78874 14.4562Z" fill="#3E2723" fill-opacity="0.15"/>
<path d="M1 23.0001H11.4712L16.3312 18.1401V14.5001H7.67L1 3.06006V23.0001Z" fill="#0F9D58"/>
<path d="M1 23.0001H11.4712L16.3312 18.1401V14.5001H7.67L1 3.06006V23.0001Z" fill="url(#paint1_linear_1:1003)"/>
<path d="M16.23 14.6662L16.1263 14.6062L11.3275 23H11.4713L16.2338 14.67L16.23 14.6662Z" fill="#263238" fill-opacity="0.15"/>
<path d="M12 7L16.3313 14.5L11.4713 23H23V7H12Z" fill="#FFCD40"/>
<path d="M12 7L16.3313 14.5L11.4713 23H23V7H12Z" fill="url(#paint2_linear_1:1003)"/>
<path d="M12 7L16.3313 14.5L11.4713 23H23V7H12Z" fill="#FFCD40"/>
<path d="M12 7L16.3313 14.5L11.4713 23H23V7H12Z" fill="url(#paint3_linear_1:1003)"/>
<path d="M2.74628 1V14.5H7.67003L12 7H23V1H2.74628Z" fill="#DB4437"/>
<path d="M2.74628 1V14.5H7.67003L12 7H23V1H2.74628Z" fill="url(#paint4_linear_1:1003)"/>
<path d="M12 7V9.61875L21.8 7H12Z" fill="url(#paint5_radial_1:1003)"/>
<path d="M1 23.0001H11.4712L16.3312 18.1401V14.5001H7.67L1 3.06006V23.0001Z" fill="#0F9D58"/>
<path d="M1 23.0001H11.4712L16.3312 18.1401V14.5001H7.67L1 3.06006V23.0001Z" fill="url(#paint6_linear_1:1003)"/>
<path d="M2.74628 6.05615L9.90253 13.2112L7.67003 14.4999L2.74628 6.05615Z" fill="url(#paint7_radial_1:1003)"/>
<path d="M11.4788 22.9862L14.0988 13.2112L16.3313 14.4999L11.4788 22.9862Z" fill="url(#paint8_radial_1:1003)"/>
<path d="M12 17C14.7614 17 17 14.7614 17 12C17 9.23858 14.7614 7 12 7C9.23858 7 7 9.23858 7 12C7 14.7614 9.23858 17 12 17Z" fill="#F1F1F1"/>
<path d="M12 16C14.2091 16 16 14.2091 16 12C16 9.79086 14.2091 8 12 8C9.79086 8 8 9.79086 8 12C8 14.2091 9.79086 16 12 16Z" fill="#4285F4"/>
<path d="M12 6.875C9.23875 6.875 7 9.11375 7 11.875V12C7 9.23875 9.23875 7 12 7H23V6.875H12Z" fill="#3E2723" fill-opacity="0.2"/>
<path d="M16.325 14.5001C15.46 15.9926 13.8488 17.0001 12 17.0001C10.15 17.0001 8.53875 15.9926 7.67375 14.5001H7.66875L1 3.06006V3.18506L7.67 14.6251H7.675C8.54 16.1176 10.1512 17.1251 12.0013 17.1251C13.85 17.1251 15.4613 16.1188 16.3263 14.6251H16.3325V14.5001H16.325Z" fill="white" fill-opacity="0.1"/>
<path opacity="0.1" d="M12.125 7C12.1037 7 12.0838 7.0025 12.0625 7.00375C14.795 7.0375 17 9.26 17 12C17 14.74 14.795 16.9625 12.0625 16.9963C12.0838 16.9963 12.1037 17 12.125 17C14.8863 17 17.125 14.7613 17.125 12C17.125 9.23875 14.8863 7 12.125 7Z" fill="#3E2723"/>
<path d="M16.375 14.6664C16.8 13.9314 17.0463 13.0814 17.0463 12.1714C17.0463 11.6439 16.9638 11.1364 16.8125 10.6602C16.9313 11.0877 17 11.5364 17 12.0014C17 12.9114 16.7538 13.7614 16.3288 14.4964L16.3313 14.5014L11.4713 23.0014H11.6163L16.3775 14.6714L16.375 14.6664Z" fill="white" fill-opacity="0.2"/>
<path d="M12 1.125C18.0537 1.125 22.965 6.01625 22.9988 12.0625C22.9988 12.0413 23 12.0212 23 12C23 5.925 18.075 1 12 1C5.925 1 1 5.925 1 12C1 12.0212 1.00125 12.0413 1.00125 12.0625C1.035 6.01625 5.94625 1.125 12 1.125Z" fill="white" fill-opacity="0.2"/>
<path d="M12 22.875C18.0537 22.875 22.965 17.9837 22.9988 11.9375C22.9988 11.9588 23 11.9787 23 12C23 18.075 18.075 23 12 23C5.925 23 1 18.075 1 12C1 11.9787 1.00125 11.9588 1.00125 11.9375C1.035 17.9837 5.94625 22.875 12 22.875Z" fill="#3E2723" fill-opacity="0.15"/>
<path d="M12 23C18.0751 23 23 18.0751 23 12C23 5.92487 18.0751 1 12 1C5.92487 1 1 5.92487 1 12C1 18.0751 5.92487 23 12 23Z" fill="url(#paint9_radial_1:1003)"/>
<defs>
<linearGradient id="paint0_linear_1:1003" x1="3.66715" y1="9.37762" x2="10.2297" y2="5.54425" gradientUnits="userSpaceOnUse">
<stop stop-color="#A52714" stop-opacity="0.6"/>
<stop offset="0.66" stop-color="#A52714" stop-opacity="0"/>
</linearGradient>
<linearGradient id="paint1_linear_1:1003" x1="13.859" y1="20.5619" x2="6.56725" y2="16.2912" gradientUnits="userSpaceOnUse">
<stop stop-color="#055524" stop-opacity="0.4"/>
<stop offset="0.33" stop-color="#055524" stop-opacity="0"/>
</linearGradient>
<linearGradient id="paint2_linear_1:1003" x1="15.2323" y1="6.2255" x2="17.0684" y2="14.2662" gradientUnits="userSpaceOnUse">
<stop stop-color="#EA6100" stop-opacity="0.3"/>
<stop offset="0.66" stop-color="#EA6100" stop-opacity="0"/>
</linearGradient>
<linearGradient id="paint3_linear_1:1003" x1="15.2323" y1="6.2255" x2="17.0684" y2="14.2662" gradientUnits="userSpaceOnUse">
<stop stop-color="#EA6100" stop-opacity="0.3"/>
<stop offset="0.66" stop-color="#EA6100" stop-opacity="0"/>
</linearGradient>
<linearGradient id="paint4_linear_1:1003" x1="3.66715" y1="9.37762" x2="10.2297" y2="5.54425" gradientUnits="userSpaceOnUse">
<stop stop-color="#A52714" stop-opacity="0.6"/>
<stop offset="0.66" stop-color="#A52714" stop-opacity="0"/>
</linearGradient>
<radialGradient id="paint5_radial_1:1003" cx="0" cy="0" r="1" gradientUnits="userSpaceOnUse" gradientTransform="translate(11.522 6.9935) scale(10.5097)">
<stop stop-color="#3E2723" stop-opacity="0.2"/>
<stop offset="1" stop-color="#3E2723" stop-opacity="0"/>
</radialGradient>
<linearGradient id="paint6_linear_1:1003" x1="13.859" y1="20.5619" x2="6.56725" y2="16.2912" gradientUnits="userSpaceOnUse">
<stop stop-color="#055524" stop-opacity="0.4"/>
<stop offset="0.33" stop-color="#055524" stop-opacity="0"/>
</linearGradient>
<radialGradient id="paint7_radial_1:1003" cx="0" cy="0" r="1" gradientUnits="userSpaceOnUse" gradientTransform="translate(2.7344 6.0649) scale(9.7555)">
<stop stop-color="#3E2723" stop-opacity="0.2"/>
<stop offset="1" stop-color="#3E2723" stop-opacity="0"/>
</radialGradient>
<radialGradient id="paint8_radial_1:1003" cx="0" cy="0" r="1" gradientUnits="userSpaceOnUse" gradientTransform="translate(11.9805 12.0172) scale(10.9837)">
<stop stop-color="#263238" stop-opacity="0.2"/>
<stop offset="1" stop-color="#263238" stop-opacity="0"/>
</radialGradient>
<radialGradient id="paint9_radial_1:1003" cx="0" cy="0" r="1" gradientUnits="userSpaceOnUse" gradientTransform="translate(4.28575 4.00175) scale(22.0932)">
<stop stop-color="white" stop-opacity="0.1"/>
<stop offset="1" stop-color="white" stop-opacity="0"/>
</radialGradient>
</defs>
</svg>
